<?xml version="1.0" encoding="utf-8"?>
<svg width="55" height="48" viewBox="0 0 55 48" fill="none" xmlns="http://www.w3.org/2000/svg">
  <path d="M14.1844 28.6018C19.1753 27.1861 24.3753 26.5919 29.5685 26.8438C34.7573 27.0824 39.8669 28.1733 44.68 30.07L45.3518 27.1431C33.3009 22.6504 21.302 22.6441 9.27056 27.1211C9.72495 29.0713 10.1177 30.9459 10.6013 32.7921C11.0611 34.3444 11.2185 35.9664 11.0654 37.5747C10.7408 40.0952 10.3319 42.6346 9.96188 45.1645C9.82881 46.0718 9.69573 46.9761 9.56266 47.9023H14.3726C14.393 47.8479 14.4093 47.7921 14.4213 47.7353C14.7654 44.9849 15.1094 42.2376 15.4404 39.4871C15.4364 39.3829 15.4729 39.281 15.5426 39.2016C15.6123 39.1222 15.7102 39.0712 15.8169 39.0586C19.3267 38.1978 22.9273 37.7336 26.5469 37.6755C28.7913 37.6181 31.0368 37.7467 33.2587 38.0599C35.0893 38.3309 36.9003 38.7215 38.7146 39.0775C38.7885 39.0964 38.8566 39.1323 38.9131 39.1822C38.9696 39.2321 39.0129 39.2946 39.0392 39.3642C39.2923 41.2231 39.5227 43.0851 39.7564 44.9471C39.8862 45.9679 40.0161 46.9887 40.1459 48H45.1895C44.6897 44.6761 44.1769 41.3838 43.7128 38.1009C43.7039 37.8891 43.622 37.6863 43.4801 37.5252C43.3383 37.3641 43.1447 37.2539 42.9306 37.2124C34.6892 34.4717 25.8378 33.9448 17.3131 35.6875C16.664 35.8198 16.0376 35.9616 15.3658 36.1065C15.3658 35.697 15.3658 35.3315 15.3658 34.9692C15.3703 34.3799 15.3291 33.7912 15.2425 33.208C14.9276 31.6894 14.5446 30.1645 14.1844 28.6018ZM13.9929 20.5931C22.7608 18.3985 31.9567 18.3812 40.7334 20.5426L40.4607 20.2087C37.2151 16.2704 33.9825 12.3301 30.7629 8.38768C30.679 8.27097 30.5658 8.177 30.434 8.11469C30.3023 8.05238 30.1563 8.0238 30.0099 8.03166C28.2735 8.03166 26.5371 8.03166 24.8007 8.03166C24.6353 8.02561 24.4709 8.06061 24.3233 8.13338C24.1756 8.20616 24.0495 8.31428 23.9569 8.44754C21.4534 11.5183 18.9414 14.5828 16.4206 17.641L13.9929 20.5931ZM16.8815 30.2937L17.4495 33.1765C31.0128 30.7474 43.4791 32.8961 54.592 41.053C54.6016 41.0319 54.6082 41.0096 54.6115 40.9868C54.6115 40.0164 54.6115 39.046 54.6115 38.0757C54.6213 37.9594 54.5977 37.8427 54.5433 37.7387C54.4888 37.6347 54.4057 37.5474 54.3032 37.4865C46.6273 32.0706 37.9713 29.5124 28.5591 29.2099C25.5702 29.1232 22.5798 29.3205 19.6305 29.7991C18.725 29.944 17.8292 30.1141 16.875 30.2937H16.8815ZM48.1658 24.5817C47.5751 24.295 47.0136 24.0051 46.4391 23.7468C42.0089 21.7556 37.3125 20.7852 32.483 20.3505C29.136 20.058 25.7687 20.058 22.4217 20.3505C18.3966 20.6424 14.4321 21.4715 10.6402 22.8142C9.25434 23.3246 7.91391 23.9547 6.554 24.5313L7.08952 26.9289C7.9204 26.5382 8.6896 26.1444 9.48477 25.8104C14.866 23.5514 20.5393 22.7008 26.3619 22.5716C29.891 22.4871 33.4196 22.7595 36.8906 23.3845C40.5776 24.0524 44.1412 25.0858 47.4485 26.8501C47.5198 26.8802 47.5937 26.9044 47.6692 26.9226L48.1658 24.5817ZM30.1008 47.9968C30.1008 47.8834 30.13 47.7984 30.13 47.7133C30.13 45.9616 30.13 44.213 30.13 42.4613C30.1268 42.2479 30.0941 42.036 30.0326 41.8312C29.8489 41.1893 29.4322 40.6337 28.8595 40.2668C28.2868 39.8998 27.5966 39.7463 26.9165 39.8346C26.2363 39.9229 25.612 40.247 25.1587 40.7471C24.7054 41.2473 24.4538 41.8897 24.4502 42.5558C24.4502 44.254 24.4502 45.9553 24.4502 47.6566C24.4502 47.7669 24.4502 47.8771 24.4762 47.9968H30.1008ZM9.02714 38.1607C8.86486 38.2174 8.78048 38.2395 8.70259 38.2741C5.81546 39.4731 3.07003 40.9709 0.513948 42.7417C0.347856 42.8376 0.213288 42.9774 0.125939 43.1447C0.0385899 43.3121 0.00206536 43.5001 0.0206215 43.6868C0.0595686 44.61 0.0206215 45.5362 0.0206215 46.5224C0.698951 46.034 1.31886 45.5772 1.94201 45.1424C3.90469 43.8013 5.98818 42.635 8.16706 41.6579C8.29364 41.6012 8.47215 41.494 8.49162 41.3869C8.68636 40.3409 8.84539 39.2823 9.0239 38.1607H9.02714ZM45.6602 38.1607C45.8322 39.2351 45.9847 40.1771 46.121 41.1223C46.128 41.2603 46.1762 41.3934 46.2598 41.5053C46.3434 41.6172 46.4587 41.703 46.5916 41.7524C49.3587 42.9929 51.962 44.5521 54.3454 46.3963C54.4328 46.4552 54.5239 46.5089 54.618 46.557C54.618 45.5394 54.5985 44.5848 54.618 43.627C54.6306 43.4742 54.5986 43.3211 54.5257 43.1851C54.4528 43.0491 54.3419 42.9359 54.2058 42.8582C52.5387 41.6824 50.7834 40.6292 48.9544 39.7077C47.9061 39.2004 46.8253 38.7184 45.6569 38.167L45.6602 38.1607ZM0.0271091 41.0593C0.215354 40.9206 0.351668 40.823 0.478246 40.7442C1.42921 40.0857 2.36394 39.4052 3.33437 38.7814C5.04004 37.703 6.83319 36.7611 8.69609 35.9648C8.81617 35.9112 8.9882 35.7379 8.96873 35.6497C8.79996 34.7644 8.59548 33.8885 8.39425 32.9875C8.29039 33.0221 8.22873 33.0379 8.17355 33.0631C5.53834 34.189 3.02201 35.5607 0.659999 37.1588C0.434805 37.2822 0.252713 37.4681 0.137062 37.6927C0.021411 37.9172 -0.0225289 38.1701 0.0108801 38.4191C0.0660552 39.2729 0.0238653 40.1393 0.0238653 41.0656L0.0271091 41.0593ZM0.0271091 35.6308C0.627544 35.196 1.16631 34.7896 1.72131 34.4052C3.58366 33.1316 5.55311 32.0123 7.60882 31.0593C7.72566 31.0057 7.89118 30.8514 7.87495 30.7726C7.69969 29.8747 7.49522 28.9831 7.29724 28.0946C7.23557 28.0946 7.20636 28.0946 7.18689 28.0946C4.72837 29.2 2.38877 30.5393 0.202374 32.0927C0.127725 32.1463 0.0368473 32.2439 0.0336017 32.3195C0.0206193 33.397 0.0238653 34.4871 0.0238653 35.6371L0.0271091 35.6308ZM54.5531 35.6623C54.5531 34.5596 54.5531 33.5577 54.5531 32.5527C54.5665 32.4421 54.546 32.3302 54.494 32.2309C54.442 32.1317 54.3609 32.0496 54.261 31.995C52.5863 30.9931 50.9213 29.9692 49.2368 28.9831C48.6429 28.6365 47.997 28.3719 47.3446 28.0536L46.6955 30.9333C49.4868 32.209 52.1143 33.7983 54.5239 35.6686L54.5531 35.6623ZM23.2006 40.0416C22.5515 40.1109 21.9998 40.1487 21.448 40.2307C20.2298 40.4071 19.0138 40.5961 17.8 40.7978C17.6896 40.8167 17.5209 40.9301 17.5111 41.0152C17.4008 41.9603 17.3164 42.937 17.2255 43.8979L22.7852 43.041C22.7722 42.0674 22.6911 41.0656 23.1844 40.0479L23.2006 40.0416ZM37.293 43.92C37.1989 42.9528 37.121 42.0013 37.0009 41.0561C37.0009 40.9458 36.7737 40.7978 36.6309 40.7726C35.495 40.5793 34.3568 40.4018 33.2166 40.2401C32.6486 40.1582 32.0741 40.1204 31.5938 40.07L31.9183 43.0536L37.293 43.92ZM8.08267 43.8066C5.52919 44.8915 3.11712 46.2664 0.896931 47.9023H7.50821L8.08267 43.8066ZM46.6241 43.9357L47.1888 47.8897H53.6508C51.4682 46.3141 49.1047 44.9894 46.6079 43.942L46.6241 43.9357ZM37.7052 47.9559C37.6565 47.4203 37.5981 46.9099 37.5689 46.3995C37.5689 46.138 37.4326 46.034 37.1762 45.9931C36.4751 45.8797 35.7773 45.7284 35.073 45.6276C33.9987 45.4732 32.9212 45.3472 31.8274 45.2054V47.9559H37.7052ZM22.7171 45.2369C22.2724 45.2842 21.8472 45.3094 21.4188 45.3756C20.0254 45.5856 18.633 45.8093 17.2417 46.0466C17.1411 46.0624 16.9821 46.1569 16.9724 46.2325C16.8912 46.7744 16.8425 47.3226 16.7809 47.8866H22.73C22.73 47.1115 22.73 46.3585 22.73 45.6087C22.756 45.4953 22.743 45.385 22.7171 45.2369ZM27.3907 0.0417783C27.0968 0.0622513 26.8018 0.0622513 26.5079 0.0417783C25.4466 -0.115751 24.5833 0.161499 23.9763 1.05626C23.9105 1.13372 23.8377 1.2054 23.7589 1.27051L22.5645 2.48348H27.394L27.3907 0.0417783ZM25.1188 6.97307H29.5555C29.1758 6.50678 28.8285 6.07515 28.465 5.65297C28.3912 5.58853 28.2949 5.55363 28.1956 5.5553C27.6266 5.5553 27.0564 5.5553 26.4852 5.5553C26.3849 5.55345 26.2876 5.58832 26.2126 5.65297C25.875 6.08775 25.5277 6.51938 25.1448 6.98567L25.1188 6.97307ZM27.3355 3.46016C27.2613 3.45601 27.1869 3.4672 27.1174 3.49301C27.0479 3.51881 26.9849 3.55864 26.9324 3.60986C26.8799 3.66108 26.8393 3.72253 26.8131 3.79014C26.7869 3.85775 26.7758 3.92998 26.7805 4.00206C26.7805 4.14579 26.8394 4.28362 26.944 4.38525C27.0487 4.48687 27.1907 4.54396 27.3388 4.54396C27.4868 4.54396 27.6288 4.48687 27.7335 4.38525C27.8382 4.28362 27.897 4.14579 27.897 4.00206C27.8992 3.93292 27.8869 3.86406 27.8609 3.79967C27.8349 3.73528 27.7956 3.6767 27.7455 3.6275C27.6954 3.57829 27.6356 3.53948 27.5695 3.51342C27.5035 3.48736 27.4327 3.4746 27.3615 3.47591L27.3355 3.46016Z" style="fill: rgb(255, 255, 255);"/>
</svg>